<svg width="16" height="12" viewBox="0 0 16 12" fill="none" xmlns="http://www.w3.org/2000/svg">
<path d="M11.6518 5.33332C11.6567 5.33325 11.6617 5.33325 11.6667 5.33325C13.3236 5.33325 14.6667 6.67639 14.6667 8.33325C14.6667 9.99012 13.3236 11.3333 11.6667 11.3333H4.66671C2.82576 11.3333 1.33337 9.84085 1.33337 7.99992C1.33337 6.26679 2.65603 4.84265 4.34699 4.68172M11.6518 5.33332C11.6616 5.22352 11.6667 5.11232 11.6667 4.99992C11.6667 2.97487 10.0251 1.33325 8.00004 1.33325C6.0822 1.33325 4.50826 2.80567 4.34699 4.68172M11.6518 5.33332C11.5836 6.08959 11.2858 6.77965 10.8286 7.33325M4.34699 4.68172C4.45221 4.67172 4.55886 4.66659 4.66671 4.66659C5.41725 4.66659 6.10987 4.91465 6.66704 5.33325" stroke="white" stroke-linecap="round" stroke-linejoin="round"/>
</svg>
