<svg width="16" height="16" viewBox="0 0 16 16" fill="none" xmlns="http://www.w3.org/2000/svg">
<path d="M1.33337 3.96097C3.66671 6.24875 7.05037 5.26827 7.82164 3.96097C7.93511 3.76867 8.00004 3.54543 8.00004 3.30731C8.00004 2.5853 7.40311 2 6.66671 2C5.93033 2 5.33337 2.5853 5.33337 3.30731" stroke="white" stroke-linecap="round"/>
<path d="M11.3333 5.95209C11.3333 4.87398 12.0795 4 13 4C13.9204 4 14.6666 4.87398 14.6666 5.95209C14.6666 6.43013 14.5199 6.86807 14.2764 7.2074C12.8975 9.461 6.18423 8.61093 2.66663 7.9042" stroke="white" stroke-linecap="round"/>
<path d="M8.72364 13.2583C8.86091 13.6905 9.23131 14.0001 9.66671 14.0001C10.219 14.0001 10.6667 13.5019 10.6667 12.8874C10.6667 12.6785 10.615 12.483 10.5249 12.3159C9.66664 10.6617 5.33335 9.54935 1.33337 12.5165" stroke="white" stroke-linecap="round"/>
<path d="M12.6666 10.3333H14" stroke="white" stroke-linecap="round" stroke-linejoin="round"/>
</svg>
